General
Complete name                            : Saadi Love Story 2013 720p HDRip x264 5.1 Ch Punjabi By JaGatJeetSanDhu.mkv
Format                                   : Matroska
Format version                           : Version 4 / Version 2
File size                                : 751 MiB
Duration                                 : 1h 44mn
Overall bit rate                         : 1 002 Kbps
Movie name                               : Saadi Love Story | 720p | HDRip | JaGatJeetSanDhu

Video
ID                                       : 1
Format                                   : AVC
Format/Info                              : Advanced Video Codec
Format profile                           : High@L3.1
Format settings, CABAC                   : Yes
Format settings, ReFrames                : 4 frames
Codec ID                                 : V_MPEG4/ISO/AVC
Duration                                 : 1h 44mn
Bit rate                                 : 616 Kbps
Width                                    : 1 280 pixels
Height                                   : 544 pixels
Display aspect ratio                     : 2.35:1
Frame rate mode                          : Constant
Frame rate                               : 29.970 fps
Color space                              : YUV
Chroma subsampling                       : 4:2:0
Bit depth                                : 8 bits
Scan type                                : Progressive
Bits/(Pixel*Frame)                       : 0.030
Stream size                              : 448 MiB (60%)
Title                                    : JaGatJeetSanDhu
Writing library                          : x264 core 
Language                                 : English
Default                                  : Yes
Forced                                   : No

Audio
ID                                       : 2
Format                                   : AC-3
Format/Info                              : Audio Coding 3
Mode extension                           : CM (complete main)
Format settings, Endianness              : Big
Codec ID                                 : A_AC3
Duration                                 : 1h 44mn
Bit rate mode                            : Constant
Bit rate                                 : 384 Kbps
Channel(s)                               : 6 channels
Channel positions                        : Front: L C R, Side: L R, LFE
Sampling rate                            : 48.0 KHz
Bit depth                                : 16 bits
Compression mode                         : Lossy
Stream size                              : 288 MiB (38%)
Title                                    : JaGatJeetSanDhu
Language                                 : Panjabi
Default                                  : Yes
Forced                                   : No

Screens
 
http://imageshack.us/a/img209/8528/16242722.png
 
http://imageshack.us/a/img819/8247/18341257.png
 
http://imageshack.us/a/img839/6554/77867198.png
 
http://imageshack.us/a/img803/3450/66474343.png
 
http://imageshack.us/a/img593/8485/15326290.png
 
http://imageshack.us/a/img545/8536/95209000.png
 
http://imageshack.us/a/img802/1248/57016401.png
 
http://imageshack.us/a/img37/6954/58427287.png
 
http://imageshack.us/a/img259/4818/87303167.png
 
http://imageshack.us/a/img24/2994/88204277.png
 
http://imageshack.us/a/img803/9017/43152044.png
 
http://imageshack.us/a/img502/7546/53184831.png
 
http://imageshack.us/a/img543/1618/41312908.png
 
http://imageshack.us/a/img705/4255/32651290.png